<svg width="120" height="36" viewBox="0 0 120 36" fill="none" xmlns="http://www.w3.org/2000/svg">
<path d="M15.42 20L14.244 16.472H6.432L5.256 20H1.084L7.944 0.399999H12.732L19.62 20H15.42ZM7.664 12.86H13.04L10.352 4.852L7.664 12.86ZM32.2751 20L28.3271 13.196H25.3871V20H21.5231V0.399999H29.3631C31.1738 0.399999 32.7138 1.03467 33.9831 2.304C35.2525 3.57333 35.8871 5.104 35.8871 6.896C35.8871 8.10933 35.5418 9.23867 34.8511 10.284C34.1605 11.3107 33.2458 12.0853 32.1071 12.608L36.4471 20H32.2751ZM25.3871 4.012V9.808H29.3631C30.0911 9.808 30.7165 9.528 31.2391 8.968C31.7618 8.38933 32.0231 7.69867 32.0231 6.896C32.0231 6.09333 31.7618 5.412 31.2391 4.852C30.7165 4.292 30.0911 4.012 29.3631 4.012H25.3871ZM51.2762 0.399999V4.096H45.9842V20H42.1202V4.096H36.8562V0.399999H51.2762ZM57.2973 16.304H64.7733V20H53.4333V0.399999H57.2973V16.304ZM66.9684 0.399999H70.8324V20H66.9684V0.399999ZM86.1646 4.096H78.3246V8.744H85.9406V12.44H78.3246V20H74.4606V0.399999H86.1646V4.096ZM101.944 0.399999V4.096H96.6522V20H92.7882V4.096H87.5242V0.399999H101.944Z" fill="black"/>
<path opacity="0.5" d="M107.534 19.86C107.329 20.0653 107.081 20.168 106.792 20.168C106.503 20.168 106.255 20.0653 106.05 19.86C105.845 19.6547 105.742 19.4073 105.742 19.118C105.742 18.8287 105.84 18.5813 106.036 18.376C106.241 18.1707 106.493 18.068 106.792 18.068C107.081 18.068 107.329 18.1707 107.534 18.376C107.739 18.5813 107.842 18.8287 107.842 19.118C107.842 19.4073 107.739 19.6547 107.534 19.86ZM114.434 13H115.946V20H114.434V18.992C113.864 19.7853 113.048 20.182 111.984 20.182C111.022 20.182 110.201 19.8273 109.52 19.118C108.838 18.3993 108.498 17.5267 108.498 16.5C108.498 15.464 108.838 14.5913 109.52 13.882C110.201 13.1727 111.022 12.818 111.984 12.818C113.048 12.818 113.864 13.21 114.434 13.994V13ZM110.64 18.11C111.06 18.53 111.587 18.74 112.222 18.74C112.856 18.74 113.384 18.53 113.804 18.11C114.224 17.6807 114.434 17.144 114.434 16.5C114.434 15.856 114.224 15.324 113.804 14.904C113.384 14.4747 112.856 14.26 112.222 14.26C111.587 14.26 111.06 14.4747 110.64 14.904C110.22 15.324 110.01 15.856 110.01 16.5C110.01 17.144 110.22 17.6807 110.64 18.11ZM119.136 11.67C118.95 11.8567 118.726 11.95 118.464 11.95C118.203 11.95 117.974 11.8567 117.778 11.67C117.592 11.474 117.498 11.2453 117.498 10.984C117.498 10.7227 117.592 10.4987 117.778 10.312C117.965 10.116 118.194 10.018 118.464 10.018C118.735 10.018 118.964 10.116 119.15 10.312C119.337 10.4987 119.43 10.7227 119.43 10.984C119.43 11.2453 119.332 11.474 119.136 11.67ZM117.708 20V13H119.22V20H117.708Z" fill="black"/>
<path opacity="0.5" d="M6.426 26H7.938V33H6.426V31.992C5.85667 32.7853 5.04 33.182 3.976 33.182C3.01467 33.182 2.19333 32.8273 1.512 32.118C0.830667 31.3993 0.49 30.5267 0.49 29.5C0.49 28.464 0.830667 27.5913 1.512 26.882C2.19333 26.1727 3.01467 25.818 3.976 25.818C5.04 25.818 5.85667 26.21 6.426 26.994V26ZM2.632 31.11C3.052 31.53 3.57933 31.74 4.214 31.74C4.84867 31.74 5.376 31.53 5.796 31.11C6.216 30.6807 6.426 30.144 6.426 29.5C6.426 28.856 6.216 28.324 5.796 27.904C5.376 27.4747 4.84867 27.26 4.214 27.26C3.57933 27.26 3.052 27.4747 2.632 27.904C2.212 28.324 2.002 28.856 2.002 29.5C2.002 30.144 2.212 30.6807 2.632 31.11ZM15.2724 26H16.7564V32.678C16.7564 33.742 16.4064 34.5587 15.7064 35.128C15.0064 35.6973 14.157 35.982 13.1584 35.982C11.5437 35.982 10.4377 35.4173 9.84036 34.288L11.1424 33.532C11.5064 34.2507 12.1877 34.61 13.1864 34.61C13.8397 34.61 14.3484 34.4373 14.7124 34.092C15.0857 33.756 15.2724 33.2847 15.2724 32.678V31.824C14.703 32.636 13.891 33.042 12.8364 33.042C11.847 33.042 11.0117 32.692 10.3304 31.992C9.64903 31.2827 9.30836 30.4287 9.30836 29.43C9.30836 28.4313 9.64903 27.582 10.3304 26.882C11.0117 26.1727 11.847 25.818 12.8364 25.818C13.891 25.818 14.703 26.224 15.2724 27.036V26ZM11.4504 30.998C11.8797 31.418 12.4117 31.628 13.0464 31.628C13.681 31.628 14.2084 31.418 14.6284 30.998C15.0577 30.578 15.2724 30.0553 15.2724 29.43C15.2724 28.8047 15.0577 28.282 14.6284 27.862C14.2084 27.442 13.681 27.232 13.0464 27.232C12.4117 27.232 11.8797 27.442 11.4504 27.862C11.0304 28.282 10.8204 28.8047 10.8204 29.43C10.8204 30.0553 11.0304 30.578 11.4504 30.998ZM19.7087 30.144C19.8207 30.676 20.0774 31.0867 20.4787 31.376C20.8801 31.656 21.3701 31.796 21.9487 31.796C22.7514 31.796 23.3534 31.5067 23.7547 30.928L25.0007 31.656C24.3101 32.6733 23.2881 33.182 21.9347 33.182C20.7961 33.182 19.8767 32.8367 19.1767 32.146C18.4767 31.446 18.1267 30.564 18.1267 29.5C18.1267 28.4547 18.4721 27.582 19.1627 26.882C19.8534 26.1727 20.7401 25.818 21.8227 25.818C22.8494 25.818 23.6894 26.1773 24.3427 26.896C25.0054 27.6147 25.3367 28.4873 25.3367 29.514C25.3367 29.6727 25.3181 29.8827 25.2807 30.144H19.7087ZM19.6947 28.912H23.8107C23.7081 28.3427 23.4701 27.9133 23.0967 27.624C22.7327 27.3347 22.3034 27.19 21.8087 27.19C21.2487 27.19 20.7821 27.344 20.4087 27.652C20.0354 27.96 19.7974 28.38 19.6947 28.912ZM30.3492 25.818C31.1518 25.818 31.8005 26.0747 32.2952 26.588C32.7898 27.1013 33.0372 27.806 33.0372 28.702V33H31.5252V28.856C31.5252 28.3333 31.3852 27.932 31.1052 27.652C30.8252 27.372 30.4425 27.232 29.9572 27.232C29.4252 27.232 28.9958 27.4 28.6692 27.736C28.3425 28.0627 28.1792 28.5667 28.1792 29.248V33H26.6672V26H28.1792V26.896C28.6365 26.1773 29.3598 25.818 30.3492 25.818ZM37.9692 33.182C36.9145 33.182 36.0325 32.8273 35.3232 32.118C34.6232 31.4087 34.2732 30.536 34.2732 29.5C34.2732 28.4547 34.6232 27.582 35.3232 26.882C36.0325 26.1727 36.9145 25.818 37.9692 25.818C38.6505 25.818 39.2712 25.9813 39.8312 26.308C40.3912 26.6347 40.8112 27.0733 41.0912 27.624L39.7892 28.38C39.6305 28.044 39.3879 27.7827 39.0612 27.596C38.7439 27.4 38.3752 27.302 37.9552 27.302C37.3392 27.302 36.8212 27.512 36.4012 27.932C35.9905 28.352 35.7852 28.8747 35.7852 29.5C35.7852 30.1253 35.9905 30.648 36.4012 31.068C36.8212 31.488 37.3392 31.698 37.9552 31.698C38.3659 31.698 38.7345 31.6 39.0612 31.404C39.3972 31.208 39.6492 30.9467 39.8172 30.62L41.1192 31.362C40.8205 31.922 40.3912 32.3653 39.8312 32.692C39.2712 33.0187 38.6505 33.182 37.9692 33.182ZM46.9711 26H48.5811L45.8931 33.224C45.2211 35.0347 44.0824 35.8933 42.4771 35.8V34.386C42.9531 34.414 43.3358 34.3113 43.6251 34.078C43.9144 33.854 44.1524 33.4993 44.3391 33.014L44.4091 32.874L41.4411 26H43.0931L45.1791 31.082L46.9711 26Z" fill="black"/>
</svg>
