<svg width="17" height="18" viewBox="0 0 17 18" fill="none" xmlns="http://www.w3.org/2000/svg">
<path fill-rule="evenodd" clip-rule="evenodd" d="M8.16216 0.666504C3.68418 0.666504 0.0540543 4.39746 0.0540543 8.99984C0.0540543 13.6022 3.68418 17.3332 8.16216 17.3332C12.6401 17.3332 16.2703 13.6022 16.2703 8.99984C16.2703 6.7897 15.416 4.67008 13.8955 3.10728C12.3749 1.54448 10.3126 0.666504 8.16216 0.666504ZM14.6487 8.99984C13.7201 8.7133 12.756 8.56732 11.7865 8.5665C11.2097 8.57442 10.6346 8.63296 10.0676 8.7415C9.86486 8.23317 9.65405 7.7415 9.42703 7.24984C10.7605 6.5651 11.9764 5.66159 13.027 4.57484C14.0794 5.7942 14.6569 7.3699 14.6487 8.99984ZM8.86757 6.14984C10.0706 5.52958 11.1663 4.71033 12.1108 3.72484C10.9798 2.82644 9.59163 2.33721 8.16216 2.33317C7.63731 2.33535 7.11463 2.4025 6.60541 2.53317C7.4511 3.67551 8.20752 4.88484 8.86757 6.14984ZM5.42162 2.9665C6.30038 4.13151 7.08412 5.36904 7.76486 6.66651C6.34071 7.23808 4.82617 7.53471 3.2973 7.54151C2.81771 7.53613 2.3387 7.50553 1.86216 7.44984C2.32287 5.47648 3.63304 3.82625 5.42162 2.9665ZM1.67568 8.68317V8.99984C1.67943 10.6441 2.27429 12.229 3.34595 13.4498C4.60757 11.3411 6.57336 9.77697 8.87568 9.04984C8.70542 8.61653 8.51083 8.19989 8.31625 7.78325L8.31624 7.78322L8.31622 7.78317C6.72086 8.44427 5.01744 8.78649 3.2973 8.7915C2.75511 8.78957 2.21355 8.75339 1.67568 8.68317ZM4.25406 14.3082C5.36624 12.3301 7.17414 10.8656 9.30541 10.2165C9.87551 11.8357 10.2804 13.5113 10.5135 15.2165C8.41766 16.0639 6.04317 15.7225 4.25406 14.3165V14.3082ZM10.5054 9.93317C11.0229 11.4535 11.4082 13.0179 11.6568 14.6082C13.1455 13.631 14.1821 12.072 14.527 10.2915C13.6433 9.98892 12.718 9.83418 11.7865 9.83317C11.3578 9.83716 10.9298 9.87057 10.5054 9.93317Z" fill="black"/>
</svg>
